<svg id="Calque_1" data-name="Calque 1" xmlns="http://www.w3.org/2000/svg" viewBox="0 0 25 25"><defs><style>.cls-1{fill:#2e686f;}</style></defs><path class="cls-1" d="M15.69,22.16A7.42,7.42,0,0,0,17,9.63L19.69,7l-.12-.41a7.52,7.52,0,0,0-2.64-3.82,7.36,7.36,0,0,0-4.49-1.51A7.43,7.43,0,0,0,7.79,14.46L5.17,17.09l.11.41a7.47,7.47,0,0,0,3.91,4.66l-.56.13a11.42,11.42,0,0,0-3.5,1.49,33.92,33.92,0,0,1,3.66-.66,30.92,30.92,0,0,1,3.47-.21h.37a31,31,0,0,1,3.46.21,34.83,34.83,0,0,1,3.66.66,11.37,11.37,0,0,0-3.51-1.49ZM8.17,14.74a7.26,7.26,0,0,0,1.84.94l2.8-2.8h-.37a4.22,4.22,0,1,1,4-5.69,3.94,3.94,0,0,1,.25,1.13l.09,1.08a7.19,7.19,0,0,0-1.67-.88l-2.73,2.73h.11a4.18,4.18,0,0,1,1.66.34,4.22,4.22,0,1,1-5.87,4.14Z"/></svg>