<svg xmlns="http://www.w3.org/2000/svg" viewBox="0 0 100 100"><defs><style>.cls-1{fill:#fff;}</style></defs><g id="Calque_2" data-name="Calque 2"><path class="cls-1" d="M6.61,85.49l2.12-.74c.54,2.79,2.14,3.85,3.88,3.85s2.75-1.13,2.75-3.16C15.36,83,13.78,82,11.92,81c-2.08-1.16-4.48-2.29-4.48-5.59,0-2.87,1.61-4.84,4.93-4.84a5,5,0,0,1,5.18,4.52l-1.94.62c-.38-2-1.36-3-3.24-3a2.45,2.45,0,0,0-2.59,2.66c0,1.94,1.8,2.75,3.69,3.84s4.32,2.58,4.32,6.19c0,3.16-1.9,5.38-5.26,5.38C9.94,90.77,7.36,89.4,6.61,85.49Z"/><path class="cls-1" d="M25.67,80l-2.28,2.38v8.15H20.93V70.84h2.46V79.6l6.33-8.76h3l-5.46,7.27,6.14,12.41h-2.9Z"/><path class="cls-1" d="M38.93,83,33.37,70.84h2.77l2,5,2,5,2-5,2-5H47L41.37,83v7.55H38.93Z"/><path class="cls-1" d="M45.23,90.52V88.35a4.27,4.27,0,0,0,1.63.35c2,0,2.65-1.28,2.65-3.85v-14H52v14c0,4.18-1.52,6-4.82,6A7,7,0,0,1,45.23,90.52Z"/><path class="cls-1" d="M63.36,86.26H57l-1,4.26H53.41l5.13-19.68h3.3L67,90.52H64.38Zm-.49-2.06L60.46,74.09l-.2-1.41h-.07l-.26,1.41L57.5,84.2Z"/><path class="cls-1" d="M69.54,70.84h4.39c5.25,0,8.08,3.52,8.08,10,0,6.22-2.91,9.7-8.12,9.7H69.54Zm4.07,17.49c4,0,5.9-2.5,5.9-7.66S77.69,73,73.86,73H72V88.33Z"/><path class="cls-1" d="M85.24,70.84h9.55V73H87.73v6.55h6.15v2.19H87.73v6.55h7.06v2.2H85.24Z"/><path class="cls-1" d="M57.87,61a19.14,19.14,0,0,0,3.46-32.29l6.86-6.86-.32-1.06a19.33,19.33,0,0,0-6.81-9.85A18.93,18.93,0,0,0,49.5,7a19.15,19.15,0,0,0-12,34.12l-6.77,6.77.3,1A19.23,19.23,0,0,0,41.14,61c-.49.1-1,.21-1.45.33a29.24,29.24,0,0,0-9,3.85,83.72,83.72,0,0,1,9.42-1.7A78.87,78.87,0,0,1,49,62.88H50a78.51,78.51,0,0,1,8.92.55,83.72,83.72,0,0,1,9.42,1.7,29.24,29.24,0,0,0-9-3.85C58.83,61.16,58.35,61.05,57.87,61ZM38.49,41.84a19.27,19.27,0,0,0,4.74,2.42L50.46,37h-1a10.88,10.88,0,1,1,0-21.75,10.93,10.93,0,0,1,10.18,7.09,10.66,10.66,0,0,1,.65,2.93l.22,2.78a19.41,19.41,0,0,0-4.29-2.29l-7,7.06h.29A10.88,10.88,0,1,1,38.64,44.39Z"/></g></svg>