<svg id="new" xmlns="http://www.w3.org/2000/svg" viewBox="0 0 100 100"><defs><style>.cls-1{fill:#2e686f;}</style></defs><path class="cls-1" d="M5.52,86.49l2.12-.73c.54,2.79,2.14,3.84,3.88,3.84s2.75-1.12,2.75-3.16c0-2.4-1.58-3.41-3.44-4.44-2.08-1.16-4.49-2.29-4.49-5.58,0-2.87,1.62-4.85,4.94-4.85a5,5,0,0,1,5.18,4.53l-1.94.61c-.38-2-1.36-3-3.24-3a2.44,2.44,0,0,0-2.59,2.66c0,1.93,1.8,2.74,3.68,3.83,2,1.17,4.33,2.59,4.33,6.19,0,3.16-1.9,5.38-5.26,5.38C8.84,91.77,6.27,90.4,5.52,86.49Z"/><path class="cls-1" d="M24.58,81,22.3,83.38v8.15H19.84V71.84H22.3v8.77l6.33-8.77h3l-5.46,7.27,6.14,12.42h-2.9Z"/><path class="cls-1" d="M37.84,84,32.28,71.84h2.77l2,5,2,5,2-5,2-5h2.79L40.28,84v7.55H37.84Z"/><path class="cls-1" d="M44.14,91.53V89.36a4.19,4.19,0,0,0,1.63.34c2,0,2.65-1.27,2.65-3.85v-14h2.49v14c0,4.18-1.52,6-4.82,6A7.4,7.4,0,0,1,44.14,91.53Z"/><path class="cls-1" d="M62.27,87.26H55.92l-1,4.27H52.32l5.13-19.69h3.3l5.11,19.69H63.29Zm-.49-2.06L59.37,75.09l-.2-1.41H59.1l-.26,1.41L56.41,85.2Z"/><path class="cls-1" d="M68.45,71.84h4.38c5.26,0,8.09,3.52,8.09,10,0,6.23-2.91,9.71-8.12,9.71H68.45Zm4.07,17.49c4,0,5.9-2.5,5.9-7.66S76.6,74,72.77,74H70.89v15.3Z"/><path class="cls-1" d="M84.15,71.84H93.7V74H86.64v6.54h6.15v2.2H86.64v6.54H93.7v2.21H84.15Z"/><path class="cls-1" d="M56.78,62a19.15,19.15,0,0,0,3.46-32.3L67.1,22.8l-.32-1.06A19.31,19.31,0,0,0,60,11.9,19,19,0,0,0,48.4,8a19.15,19.15,0,0,0-12,34.12l-6.77,6.77L30,50A19.21,19.21,0,0,0,40.05,62l-1.45.34a29.38,29.38,0,0,0-9,3.84A86.58,86.58,0,0,1,39,64.44a78.88,78.88,0,0,1,8.94-.56h1a78.53,78.53,0,0,1,8.92.56,86,86,0,0,1,9.42,1.69,29.32,29.32,0,0,0-9-3.84C57.73,62.17,57.26,62.06,56.78,62ZM37.4,42.84a19,19,0,0,0,4.74,2.43L49.37,38h-1a10.78,10.78,0,0,1-3.78-.68,10.87,10.87,0,1,1,14-14,10.51,10.51,0,0,1,.65,2.92l.22,2.78a19.38,19.38,0,0,0-4.29-2.28l-7.05,7.05h.28A10.88,10.88,0,1,1,37.55,45.4Z"/></svg>