<svg xmlns="http://www.w3.org/2000/svg" viewBox="0 0 25 25"><defs><style>.cls-1{fill:#fff;}</style></defs><g id="Calque_2" data-name="Calque 2"><path class="cls-1" d="M15.75,22.16A7.42,7.42,0,0,0,17.09,9.63L19.75,7l-.12-.42A7.47,7.47,0,0,0,17,2.73,7.34,7.34,0,0,0,12.5,1.22,7.43,7.43,0,0,0,7.86,14.46L5.23,17.09l.11.41a7.46,7.46,0,0,0,3.92,4.66l-.56.13a11.37,11.37,0,0,0-3.51,1.49,34.37,34.37,0,0,1,3.66-.66,31.07,31.07,0,0,1,3.47-.21h.37a30.89,30.89,0,0,1,3.46.21,34.37,34.37,0,0,1,3.66.66,11.37,11.37,0,0,0-3.51-1.49ZM8.23,14.74a7.26,7.26,0,0,0,1.84.94l2.8-2.8H12.5a4.22,4.22,0,1,1,3.95-5.69,4.32,4.32,0,0,1,.26,1.13l.08,1.08a7.33,7.33,0,0,0-1.66-.88l-2.74,2.73h.11a4.18,4.18,0,0,1,1.66.34,4.22,4.22,0,1,1-5.87,4.14Z"/></g></svg>