<svg id="Calque_1" data-name="Calque 1" xmlns="http://www.w3.org/2000/svg" viewBox="0 0 100 50"><defs><style>.cls-1{fill:#fff;}</style></defs><path class="cls-1" d="M8.4,44.18l1.94-.67c.49,2.55,1.94,3.52,3.53,3.52s2.52-1,2.52-2.89c0-2.2-1.44-3.12-3.14-4.06C11.34,39,9.15,38,9.15,35c0-2.62,1.48-4.42,4.51-4.42a4.53,4.53,0,0,1,4.73,4.13l-1.77.56c-.35-1.83-1.24-2.74-3-2.74a2.23,2.23,0,0,0-2.37,2.43c0,1.77,1.64,2.51,3.37,3.5s3.95,2.37,3.95,5.66c0,2.89-1.73,4.92-4.8,4.92C11.43,49,9.08,47.75,8.4,44.18Z"/><path class="cls-1" d="M25.81,39.16l-2.08,2.18v7.44H21.48v-18h2.25v8l5.78-8h2.71l-5,6.64,5.61,11.34H30.19Z"/><path class="cls-1" d="M37.93,41.88,32.85,30.8h2.53l1.86,4.59L39.06,40l1.81-4.57,1.85-4.59h2.55L40.16,41.88v6.9H37.93Z"/><path class="cls-1" d="M43.69,48.78v-2a3.77,3.77,0,0,0,1.49.31C47,47.11,47.6,46,47.6,43.6V30.8h2.27V43.58c0,3.82-1.39,5.46-4.4,5.46A6.5,6.5,0,0,1,43.69,48.78Z"/><path class="cls-1" d="M60.26,44.89H54.45l-.94,3.89H51.16l4.69-18h3l4.67,18H61.19ZM59.81,43,57.6,33.76l-.18-1.28h-.07l-.23,1.28L54.9,43Z"/><path class="cls-1" d="M65.9,30.8h4c4.81,0,7.39,3.21,7.39,9.11,0,5.69-2.66,8.87-7.42,8.87h-4Zm3.72,16c3.64,0,5.4-2.29,5.4-7s-1.67-7-5.17-7H68.13v14Z"/><path class="cls-1" d="M80.25,30.8H89v2H82.52v6h5.62v2H82.52v6H89v2H80.25Z"/><path class="cls-1" d="M52.66,26a9.08,9.08,0,0,0,1.63-15.31l3.26-3.25L57.4,6.9a9.19,9.19,0,0,0-3.23-4.66A9,9,0,0,0,48.69.39,9.09,9.09,0,0,0,43,16.57l-3.2,3.2.14.5A9.14,9.14,0,0,0,44.72,26l-.68.15A14,14,0,0,0,39.76,28a39.67,39.67,0,0,1,4.47-.81,37.55,37.55,0,0,1,4.24-.26h.44a37.37,37.37,0,0,1,4.23.26,39.67,39.67,0,0,1,4.47.81,14,14,0,0,0-4.28-1.83Zm-9.19-9.06a9.12,9.12,0,0,0,2.24,1.15l3.43-3.43h-.45a5.32,5.32,0,0,1-1.8-.32,5.15,5.15,0,1,1,6.62-6.63,4.93,4.93,0,0,1,.31,1.39l.11,1.31a9.47,9.47,0,0,0-2-1.08l-3.34,3.35h.14a5.07,5.07,0,0,1,2,.41,5.15,5.15,0,1,1-7.17,5.06Z"/></svg>